# xmcd
# Track frame offsets:
# 150
# 15969
# 31133
# 46006
# 57992
# 73981
# 85676
# 100027
# 115846
# 129506
# 144173
# 158688
# 173901
# 183303
# 198855
#
# Disc length: 2830 seconds
# Revision: 0
# Processed by: cddbd v1.5.2PL0 Copyright (c) Steve Scherf et al.
# Submitted via: VisiTrax 2.10.2.252 - For more info visit www.synapsa.com
#
DISCID=b40b0c0f
DTITLE=Hot Boogie Chillen - Demo
DYEAR=2003
DGENRE=Blues
TTITLE0=Demo
TTITLE1=Demo
TTITLE2=Demo
TTITLE3=Demo
TTITLE4=Demo
TTITLE5=Demo
TTITLE6=Demo
TTITLE7=Demo
TTITLE8=Demo
TTITLE9=Demo
TTITLE10=Demo
TTITLE11=Demo
TTITLE12=Demo
TTITLE13=Demo
TTITLE14=Demo
EXTD=
EXTT0=
EXTT1=
EXTT2=
EXTT3=
EXTT4=
EXTT5=
EXTT6=
EXTT7=
EXTT8=
EXTT9=
EXTT10=
EXTT11=
EXTT12=
EXTT13=
EXTT14=
PLAYORDER=
